<?xml version="1.0" standalone="no"?>
<!DOCTYPE svg PUBLIC "-//W3C//DTD SVG 20010904//EN"
 "http://www.w3.org/TR/2001/REC-SVG-20010904/DTD/svg10.dtd">
<svg version="1.0" xmlns="http://www.w3.org/2000/svg"
 width="470.000000pt" height="470.000000pt" viewBox="0 0 470.000000 470.000000"
 preserveAspectRatio="xMidYMid meet">
<metadata>
Created by potrace 1.14, written by Peter Selinger 2001-2017
</metadata>
<g transform="translate(0.000000,470.000000) scale(0.100000,-0.100000)"
fill="#000000" stroke="none">
<path d="M339 3334 c-52 -75 -104 -149 -116 -164 -13 -15 -23 -30 -23 -32 0
-2 32 -3 72 -2 l72 1 55 81 c31 45 59 80 63 79 4 -1 33 -38 65 -81 l58 -80 68
0 c37 -1 66 3 64 8 -1 4 -52 80 -112 167 -146 210 -137 209 -266 23z"/>
<path d="M183 3032 c-42 -6 -137 -198 -166 -337 -21 -101 -15 -288 13 -384 32
-114 117 -280 144 -282 54 -4 126 -3 126 2 0 3 -10 22 -23 41 -94 143 -134
278 -135 454 0 93 4 138 22 204 22 87 95 244 128 280 21 22 23 21 -49 24 -21
0 -48 0 -60 -2z"/>
<path d="M637 3032 c-17 -3 -16 -6 5 -35 48 -64 107 -196 122 -273 3 -10 9
-38 14 -61 10 -44 8 -236 -3 -288 -19 -94 -75 -227 -127 -302 l-29 -43 26 -1
c14 0 46 -1 72 -1 l47 -1 48 84 c48 83 92 204 105 290 13 86 5 251 -16 334
-22 86 -100 252 -132 281 -18 17 -86 25 -132 16z"/>
<path d="M1357 2912 c-15 -3 -17 -29 -17 -288 l0 -284 55 0 c63 0 57 -14 57
143 l-1 87 105 0 105 0 -3 51 -3 52 -100 1 -100 1 -2 68 -3 67 63 1 c34 0 86
1 115 1 l52 0 0 49 c0 40 -3 49 -17 50 -55 3 -292 3 -306 1z"/>
<path d="M4589 2896 c-1 -11 -2 -48 -3 -81 l-1 -59 -70 -1 c-80 0 -118 -18
-151 -69 -56 -84 -47 -260 16 -318 55 -51 152 -51 206 0 24 22 34 19 34 -10 0
-14 8 -18 38 -18 l37 0 0 285 c0 278 0 285 -20 286 -11 0 -35 2 -52 3 -28 3
-33 0 -34 -18z m-26 -235 c23 -9 24 -12 22 -106 -1 -89 -3 -99 -24 -116 -32
-26 -67 -24 -96 6 -25 24 -29 43 -26 119 3 82 55 123 124 97z"/>
<path d="M407 2860 c-117 -35 -170 -184 -100 -283 42 -60 94 -87 164 -83 103
5 179 81 179 180 0 131 -120 223 -243 186z m108 -125 c37 -37 37 -78 -1 -112
-34 -31 -78 -30 -106 2 -34 39 -34 71 1 105 36 37 73 39 106 5z"/>
<path d="M2970 2837 c-31 -11 -35 -16 -35 -47 0 -30 -4 -36 -28 -40 -15 -3
-28 -8 -27 -12 0 -5 0 -24 0 -43 0 -31 3 -35 25 -35 14 0 26 -3 26 -7 1 -5 2
-60 3 -123 2 -139 13 -174 63 -191 37 -12 110 -6 142 11 17 8 18 15 9 49 -9
35 -13 39 -32 32 -22 -9 -54 -7 -64 4 -3 3 -6 54 -6 113 l-1 107 48 3 47 3 0
45 0 44 -51 0 c-49 0 -50 1 -49 28 5 77 -1 83 -70 59z"/>
<path d="M1878 2730 c-29 -29 -38 -29 -38 2 0 16 -6 19 -42 16 l-43 -3 -1
-202 -1 -203 54 0 53 0 0 139 0 140 27 21 c21 16 35 20 60 15 23 -4 33 -2 33
7 1 7 3 30 6 50 5 33 3 38 -18 42 -42 9 -63 3 -90 -24z"/>
<path d="M2142 2753 c-39 -8 -99 -73 -112 -123 -19 -69 -7 -173 24 -221 81
-121 282 -99 334 36 28 71 16 194 -24 248 -39 54 -128 78 -222 60z m115 -98
c21 -15 38 -66 36 -107 0 -10 -1 -32 -2 -48 -2 -70 -86 -103 -133 -53 -23 25
-36 110 -24 158 15 58 76 83 123 50z"/>
<path d="M2632 2743 c-19 -9 -36 -22 -39 -30 -8 -21 -20 -15 -27 12 -6 22 -12
25 -49 25 l-42 0 0 -202 1 -203 52 -3 c29 -2 52 1 53 5 1 4 2 68 3 140 1 118
3 135 21 152 31 31 67 35 95 13 24 -19 25 -25 26 -153 2 -74 3 -140 3 -146 1
-9 18 -13 51 -13 l50 0 1 43 c1 23 1 98 0 166 0 134 -13 174 -62 198 -34 18
-98 16 -137 -4z"/>
<path d="M3575 2746 c-67 -30 -105 -100 -107 -198 -3 -151 75 -228 217 -215
79 8 130 31 120 55 -4 9 -10 25 -12 35 -6 19 -16 21 -43 7 -35 -19 -97 -19
-128 0 -28 17 -58 75 -44 84 4 2 58 4 120 3 81 0 116 3 121 12 13 21 5 125
-12 158 -25 47 -63 67 -137 69 -37 2 -78 -3 -95 -10z m140 -99 c16 -23 20 -56
8 -58 -5 0 -38 -1 -75 -2 -75 -2 -83 7 -52 51 30 44 92 48 119 9z"/>
<path d="M4055 2743 c-16 -9 -34 -22 -38 -30 -11 -18 -27 -7 -27 18 0 16 -7
19 -45 19 l-45 0 0 -206 0 -205 53 3 52 3 2 124 c1 69 4 135 8 148 10 40 76
62 110 37 18 -13 20 -29 23 -164 l3 -150 54 0 53 0 -2 168 c-2 182 -11 217
-63 241 -34 16 -103 13 -138 -6z"/>
<path d="M3207 2622 c-13 -3 -17 -14 -17 -48 l0 -44 104 0 104 0 -2 40 c-1 21
-5 42 -9 46 -7 7 -149 12 -180 6z"/>
<path d="M1440 2231 c-72 -22 -111 -75 -112 -149 0 -86 31 -124 148 -180 81
-38 102 -54 109 -84 8 -30 -24 -67 -59 -70 -60 -4 -84 -2 -120 9 -21 7 -44 13
-51 13 -9 0 -38 -68 -37 -90 0 -13 95 -31 164 -32 130 -1 204 52 215 152 6 50
-11 101 -43 131 -14 13 -65 44 -112 69 -66 34 -89 52 -96 73 -15 41 18 71 76
69 55 -3 82 -8 107 -22 19 -9 22 -7 31 17 6 15 14 35 20 45 6 11 5 20 -3 27
-32 26 -179 39 -237 22z"/>
<path d="M2143 2225 c-27 -19 -31 -66 -7 -85 8 -8 31 -13 51 -13 58 0 88 60
47 93 -22 19 -68 21 -91 5z"/>
<path d="M1867 2066 c-77 -28 -109 -83 -113 -194 -6 -151 53 -226 177 -224 71
1 134 25 125 48 -3 9 -9 27 -12 41 -5 17 -11 22 -23 18 -65 -27 -125 -11 -146
40 -29 68 -8 166 38 181 31 10 87 6 103 -6 10 -9 15 -3 23 27 6 21 11 43 11
49 0 26 -129 40 -183 20z"/>
<path d="M2458 2070 c-85 -24 -131 -92 -132 -194 -1 -116 27 -176 96 -212 44
-23 145 -21 202 5 l47 20 -17 33 c-9 18 -18 34 -19 36 -2 2 -16 -3 -32 -11
-31 -16 -99 -19 -125 -5 -20 10 -45 55 -44 78 1 12 21 15 118 15 64 0 119 3
123 6 3 4 6 31 7 60 2 68 -25 126 -70 152 -35 21 -110 28 -154 17z m100 -88
c7 -5 17 -23 22 -41 11 -40 6 -42 -80 -39 -59 3 -65 5 -62 23 9 50 78 83 120
57z"/>
<path d="M2925 2066 c-17 -7 -36 -20 -44 -29 -18 -23 -28 -21 -35 6 -5 20 -12
24 -46 24 -22 0 -40 -3 -41 -6 0 -3 -1 -91 -2 -195 -1 -126 2 -193 9 -201 11
-10 75 -12 91 -2 5 3 8 64 7 136 -1 127 -1 132 24 156 28 28 68 32 98 11 17
-13 19 -27 19 -160 0 -123 2 -146 15 -147 51 -3 83 0 89 9 11 18 5 296 -8 335
-7 21 -23 44 -35 52 -31 21 -106 27 -141 11z"/>
<path d="M3313 2070 c-78 -18 -120 -79 -128 -182 -11 -157 50 -241 175 -240
56 0 130 23 130 40 0 5 -5 23 -11 41 -8 24 -16 31 -28 26 -60 -25 -119 -11
-142 32 -8 15 -14 52 -13 86 1 48 6 63 26 83 27 27 42 30 103 20 l41 -6 11 41
c10 39 10 41 -16 51 -35 13 -109 17 -148 8z"/>
<path d="M3645 2067 c-83 -32 -117 -87 -120 -197 -4 -150 59 -224 191 -223 39
1 78 8 108 22 l47 20 -17 33 c-9 18 -18 34 -19 36 -1 1 -19 -5 -40 -14 -53
-22 -113 -13 -142 20 -25 29 -31 65 -10 67 6 1 62 2 122 3 l110 1 3 65 c3 76
-17 124 -65 153 -37 21 -128 29 -168 14z m119 -99 c9 -12 16 -32 16 -44 0 -21
-4 -23 -76 -23 -64 0 -75 2 -70 15 3 9 6 20 6 24 0 5 10 18 22 30 30 28 82 27
102 -2z"/>
<path d="M2135 2062 c-8 -8 -6 -402 3 -403 4 0 28 -1 55 -2 l47 -2 0 205 0
206 -50 0 c-27 1 -52 -1 -55 -4z"/>
<path d="M421 1942 c-6 -2 -11 -18 -11 -36 0 -55 -21 -65 -142 -67 -156 -2
-188 -29 -188 -160 l0 -47 52 2 c52 1 52 1 53 33 0 18 5 37 11 43 6 6 56 12
112 13 87 3 107 7 132 26 17 12 30 18 30 14 0 -23 51 -36 147 -39 57 -1 108
-6 113 -9 6 -3 10 -23 10 -44 l0 -38 53 1 52 1 -2 62 c-1 64 -23 116 -52 129
-9 4 -69 10 -133 13 -66 4 -123 12 -129 18 -6 6 -12 29 -13 50 -2 37 -3 38
-43 38 -22 1 -46 -1 -52 -3z"/>
<path d="M233 1552 l-32 -3 52 -74 c29 -41 81 -115 115 -165 58 -81 67 -90 95
-90 29 0 39 10 117 122 127 181 140 200 140 207 0 3 -30 6 -67 5 l-68 -1 -57
-79 c-31 -43 -60 -79 -65 -81 -4 -1 -32 33 -61 76 -51 75 -56 79 -95 83 -23 1
-56 2 -74 0z"/>
</g>
</svg>
